<mxfile host="app.diagrams.net" modified="2022-12-24T12:37:20.159Z" agent="5.0 (Macintosh; Intel Mac OS X 10_15_7) AppleWebKit/537.36 (KHTML, like Gecko) Chrome/107.0.0.0 Safari/537.36" version="20.6.2" etag="4OZDYUU9Lecuyo05Ow7_" type="github">
  <diagram id="4vqa09KUYqjlgt0QlbdY" name="第 1 页">
    <mxGraphModel dx="1234" dy="703" grid="1" gridSize="10" guides="1" tooltips="1" connect="1" arrows="1" fold="1" page="1" pageScale="1" pageWidth="827" pageHeight="1169" math="0" shadow="0">
      <root>
        <mxCell id="0" />
        <mxCell id="1" parent="0" />
        <mxCell id="zBOQrJ4n8a_TwSJd1XPt-1" value="A+B+C+D —&lt;span style=&quot;font-size: 14px; text-align: left; background-color: initial;&quot;&gt;&amp;gt; R&lt;/span&gt;" style="text;html=1;strokeColor=none;fillColor=none;align=center;verticalAlign=middle;whiteSpace=wrap;rounded=0;" vertex="1" parent="1">
          <mxGeometry x="170" y="130" width="150" height="30" as="geometry" />
        </mxCell>
        <mxCell id="zBOQrJ4n8a_TwSJd1XPt-8" style="edgeStyle=none;rounded=0;orthogonalLoop=1;jettySize=auto;html=1;" edge="1" parent="1" source="zBOQrJ4n8a_TwSJd1XPt-3" target="zBOQrJ4n8a_TwSJd1XPt-5">
          <mxGeometry relative="1" as="geometry" />
        </mxCell>
        <mxCell id="zBOQrJ4n8a_TwSJd1XPt-3" value="B" style="text;html=1;align=center;verticalAlign=middle;resizable=0;points=[];autosize=1;strokeColor=none;fillColor=none;" vertex="1" parent="1">
          <mxGeometry x="200" y="320" width="30" height="30" as="geometry" />
        </mxCell>
        <mxCell id="zBOQrJ4n8a_TwSJd1XPt-9" style="edgeStyle=none;rounded=0;orthogonalLoop=1;jettySize=auto;html=1;" edge="1" parent="1" source="zBOQrJ4n8a_TwSJd1XPt-4" target="zBOQrJ4n8a_TwSJd1XPt-5">
          <mxGeometry relative="1" as="geometry" />
        </mxCell>
        <mxCell id="zBOQrJ4n8a_TwSJd1XPt-4" value="C" style="text;html=1;align=center;verticalAlign=middle;resizable=0;points=[];autosize=1;strokeColor=none;fillColor=none;" vertex="1" parent="1">
          <mxGeometry x="200" y="370" width="30" height="30" as="geometry" />
        </mxCell>
        <mxCell id="zBOQrJ4n8a_TwSJd1XPt-5" value="R" style="text;html=1;align=center;verticalAlign=middle;resizable=0;points=[];autosize=1;strokeColor=none;fillColor=none;" vertex="1" parent="1">
          <mxGeometry x="270" y="320" width="30" height="30" as="geometry" />
        </mxCell>
        <mxCell id="zBOQrJ4n8a_TwSJd1XPt-7" style="rounded=0;orthogonalLoop=1;jettySize=auto;html=1;entryX=0;entryY=0.333;entryDx=0;entryDy=0;entryPerimeter=0;" edge="1" parent="1" source="zBOQrJ4n8a_TwSJd1XPt-6">
          <mxGeometry relative="1" as="geometry">
            <mxPoint x="270" y="323.99" as="targetPoint" />
          </mxGeometry>
        </mxCell>
        <mxCell id="zBOQrJ4n8a_TwSJd1XPt-6" value="A" style="text;html=1;align=center;verticalAlign=middle;resizable=0;points=[];autosize=1;strokeColor=none;fillColor=none;" vertex="1" parent="1">
          <mxGeometry x="200" y="259" width="30" height="30" as="geometry" />
        </mxCell>
        <mxCell id="zBOQrJ4n8a_TwSJd1XPt-12" value="&lt;h1 style=&quot;text-align: left;&quot;&gt;&lt;br&gt;&lt;/h1&gt;" style="text;html=1;strokeColor=none;fillColor=none;align=center;verticalAlign=middle;whiteSpace=wrap;rounded=0;" vertex="1" parent="1">
          <mxGeometry x="430" y="130" width="210" height="30" as="geometry" />
        </mxCell>
        <mxCell id="zBOQrJ4n8a_TwSJd1XPt-13" value="&lt;b&gt;A是R的必要条件&lt;/b&gt;&lt;br&gt;做好ABCD，才能拿到结果R；&lt;br&gt;做好A，只能为结果R贡献部分价值/产出；&lt;br&gt;&lt;br&gt;适应场景：同时做好ABCD才能拿到结果R，适应构建长期壁垒的事；" style="text;html=1;strokeColor=none;fillColor=none;align=left;verticalAlign=middle;whiteSpace=wrap;rounded=0;" vertex="1" parent="1">
          <mxGeometry x="380" y="130" width="410" height="30" as="geometry" />
        </mxCell>
        <mxCell id="zBOQrJ4n8a_TwSJd1XPt-14" value="&lt;b&gt;A是R的充分条件&lt;/b&gt;&lt;br&gt;做好A，就一定能得到R；但达到R并不一定从A处来；还可能从BC(其他竞价者)来；&lt;br&gt;&lt;br&gt;适用场景：做好A就能立即拿到结果R，适合短期快速拿到结果的事；&lt;br&gt;" style="text;html=1;strokeColor=none;fillColor=none;align=left;verticalAlign=middle;whiteSpace=wrap;rounded=0;" vertex="1" parent="1">
          <mxGeometry x="390" y="320" width="450" height="30" as="geometry" />
        </mxCell>
        <mxCell id="zBOQrJ4n8a_TwSJd1XPt-15" style="edgeStyle=none;rounded=0;orthogonalLoop=1;jettySize=auto;html=1;exitX=0.25;exitY=0;exitDx=0;exitDy=0;" edge="1" parent="1" source="zBOQrJ4n8a_TwSJd1XPt-14" target="zBOQrJ4n8a_TwSJd1XPt-14">
          <mxGeometry relative="1" as="geometry" />
        </mxCell>
        <mxCell id="zBOQrJ4n8a_TwSJd1XPt-17" value="" style="endArrow=none;html=1;rounded=0;dashed=1;" edge="1" parent="1">
          <mxGeometry width="50" height="50" relative="1" as="geometry">
            <mxPoint x="120" y="240" as="sourcePoint" />
            <mxPoint x="860" y="240" as="targetPoint" />
          </mxGeometry>
        </mxCell>
      </root>
    </mxGraphModel>
  </diagram>
</mxfile>
